<?xml version="1.0" encoding="UTF-8" standalone="no"?>
<!-- Generator: Adobe Illustrator 27.3.1, SVG Export Plug-In . SVG Version: 6.00 Build 0)  -->

<svg
   version="1.1"
   id="Layer_1"
   x="0px"
   y="0px"
   viewBox="0 0 1619.3223 1678.4623"
   xml:space="preserve"
   sodipodi:docname="PAGCOR_(2023).svg"
   width="311.3223"
   height="322.4623"
   inkscape:version="1.3 (0e150ed6c4, 2023-07-21)"
   xmlns:inkscape="http://www.inkscape.org/namespaces/inkscape"
   xmlns:sodipodi="http://sodipodi.sourceforge.net/DTD/sodipodi-0.dtd"
   xmlns:xlink="http://www.w3.org/1999/xlink"
   xmlns="http://www.w3.org/2000/svg"
   xmlns:svg="http://www.w3.org/2000/svg"><defs
   id="defs8"><linearGradient
     id="linearGradient8"
     gradientUnits="userSpaceOnUse"
     x1="317.5083"
     y1="530.82648"
     x2="487.8371"
     y2="474.51559"
     gradientTransform="translate(1409.012,475.02574)">&#10;	<stop
   offset="0"
   style="stop-color:#c10001;stop-opacity:1;"
   id="stop1-4" />&#10;	<stop
   offset="1"
   style="stop-color:#c10001;stop-opacity:0;"
   id="stop2-1" />&#10;</linearGradient><linearGradient
     id="linearGradient10"
     gradientUnits="userSpaceOnUse"
     x1="317.5083"
     y1="530.82648"
     x2="487.8371"
     y2="474.51559"
     gradientTransform="translate(-150.93912,129.88417)">&#10;	<stop
   offset="0"
   style="stop-color:#c10001;stop-opacity:1;"
   id="stop1-2" />&#10;	<stop
   offset="1"
   style="stop-color:#c10001;stop-opacity:0;"
   id="stop2-2" />&#10;</linearGradient><linearGradient
     inkscape:collect="always"
     xlink:href="#SVGID_1_"
     id="linearGradient12"
     gradientUnits="userSpaceOnUse"
     gradientTransform="matrix(1.8242167,0,0,1.8242167,-47.612,-72.968688)"
     x1="298.20978"
     y1="535.18481"
     x2="470.00879"
     y2="488.64365" /><linearGradient
     id="SVGID_1_-4"
     gradientUnits="userSpaceOnUse"
     x1="317.5083"
     y1="530.82648"
     x2="487.8371"
     y2="474.51559">&#10;	<stop
   offset="0"
   style="stop-color:#C00000"
   id="stop1-29" />&#10;	<stop
   offset="1"
   style="stop-color:#C00000;stop-opacity:0"
   id="stop2-5" />&#10;</linearGradient></defs><sodipodi:namedview
   id="namedview8"
   pagecolor="#505050"
   bordercolor="#eeeeee"
   borderopacity="1"
   inkscape:showpageshadow="0"
   inkscape:pageopacity="0"
   inkscape:pagecheckerboard="0"
   inkscape:deskcolor="#d1d1d1"
   inkscape:zoom="0.37513985"
   inkscape:cx="574.45243"
   inkscape:cy="827.69133"
   inkscape:window-width="1920"
   inkscape:window-height="991"
   inkscape:window-x="-9"
   inkscape:window-y="-9"
   inkscape:window-maximized="1"
   inkscape:current-layer="Layer_1" />&#10;<style
   type="text/css"
   id="style1">&#10;	.st0{fill:#023CBF;}&#10;	.st1{fill:url(#SVGID_1_);}&#10;</style>&#10;&#10;<linearGradient
   id="SVGID_1_"
   gradientUnits="userSpaceOnUse"
   x1="317.5083"
   y1="530.82648"
   x2="487.8371"
   y2="474.51559"
   gradientTransform="translate(-150.93912,129.88417)">&#10;	<stop
   offset="0"
   style="stop-color:#c10001;stop-opacity:1;"
   id="stop1" />&#10;	<stop
   offset="1"
   style="stop-color:#c10001;stop-opacity:0;"
   id="stop2" />&#10;</linearGradient>&#10;&#10;&#10;&#10;&#10;&#10;&#10;<path
   class="st0"
   d="m 669.57863,1293.3118 h -69.1558 v 156.3019 h 41.6562 v -58.5903 h 27.3369 c 38.7273,0 50.7685,-27.7339 50.7685,-48.4884 0.1627,-20.7546 -11.8785,-49.2232 -50.6058,-49.2232 z m -18.3873,67.59 h -8.9496 v -37.652 h 8.7869 c 19.8518,0 26.8487,4.408 26.8487,19.4688 -0.1627,15.0608 -6.9969,18.1832 -26.686,18.1832 z"
   id="path3-9"
   style="display:inline;fill:#0c3dc0;fill-opacity:1;stroke:none;stroke-width:1.72877" /><path
   id="path4-3"
   style="display:inline;fill:#0c3dc0;fill-opacity:1;stroke:none;stroke-width:1.75284"
   class="st0"
   d="m 793.21073,1291.2696 -62.0351,158.4785 h 43.3925 l 11.7129,-32.4082 h 60.7793 l 11.4844,32.4082 h 43.3906 l -61.8691,-158.4785 z m 23.7578,41.1563 20.4121,57.5996 h -41.2285 z" /><path
   class="st0"
   d="m 1009.1781,1393.295 h 18.9433 v 18.4636 c -4.7358,1.0968 -9.7982,2.3765 -16.9837,2.3765 -29.23157,0 -43.76567,-20.6573 -43.76567,-43.691 0,-16.2699 8.9818,-46.616 48.50157,-46.616 23.6792,0 38.05,9.1404 46.2152,14.4419 v -36.7444 c -9.4716,-3.4733 -28.5783,-11.3341 -56.5035,-11.3341 -18.61667,0 -38.37647,2.3765 -58.29977,19.7432 -16.1672,14.2591 -22.536,39.1209 -22.536,59.7781 0,56.122 37.7234,80.2526 78.54957,80.2526 15.0241,0 28.5783,-2.3766 39.0298,-5.1186 8.3286,-2.1937 14.2075,-4.5702 22.3728,-8.0436 v -74.5855 h -55.3603 v 31.0773 z"
   id="path5-9"
   style="display:inline;fill:#0c3dc0;fill-opacity:1;stroke:none;stroke-width:1.72781" /><path
   class="st0"
   d="m 1154.6635,1371.0629 c 0,-27.194 22.2134,-43.6917 46.0601,-43.6917 20.7433,0 36.4234,11.4215 44.1,16.679 v -40.9723 c -11.1066,-4.3511 -30.2166,-11.6028 -53.5733,-11.6028 -41.8134,0 -79.2168,24.6559 -79.2168,79.0439 0,47.1363 29.5634,79.2252 78.5634,79.2252 18.2934,0 36.5867,-3.2633 54.8801,-13.597 v -38.9781 c -8.1667,5.6202 -24.6634,16.679 -47.04,16.679 -25.8067,-0.1813 -43.7735,-19.3983 -43.7735,-42.7852 z"
   id="path6-1"
   style="display:inline;fill:#0c3dc0;fill-opacity:1;stroke:none;stroke-width:1.72079" /><path
   class="st0"
   d="m 1358.4916,1291.0406 c -54.7044,0 -79.3459,39.3 -79.3459,79.3279 0,40.0279 24.6415,79.5098 79.3459,79.5098 52.8973,0 79.346,-37.1166 79.346,-79.5098 -0.1643,-41.8472 -26.12,-79.3279 -79.346,-79.3279 z m 0,119.1738 c -22.9988,0 -36.3053,-16.557 -36.3053,-39.8459 0,-23.2889 13.4707,-39.6639 36.3053,-39.6639 23.3275,0 36.3053,16.7389 36.3053,39.6639 0,23.1069 -12.9778,39.8459 -36.3053,39.8459 z"
   id="path7-5"
   style="display:inline;fill:#0c3dc0;fill-opacity:1;stroke:none;stroke-width:1.72885" /><path
   class="st0"
   d="m 1605.4911,1415.1988 c -10.9022,-26.9738 -15.1329,-29.9502 -22.9435,-35.345 5.6952,-3.3484 22.7808,-12.6498 22.7808,-39.4376 0,-18.0446 -11.7158,-49.1109 -48.9786,-49.1109 h -70.9457 v 158.3084 h 41.6562 v -61.7608 h 4.7188 c 12.5294,0 19.6891,1.8603 31.8931,33.6708 l 10.9022,28.09 h 44.7478 z m -69.3185,-55.4358 h -8.9496 v -38.1354 h 8.7868 c 18.5501,0 26.8488,4.8366 26.8488,19.7187 -0.1628,14.6961 -6.8343,18.4167 -26.686,18.4167 z"
   id="path8-0"
   style="display:inline;fill:#0c3dc0;fill-opacity:1;stroke:none;stroke-width:1.73983" /><path
   class="st0"
   d="m 1337.6372,466.90219 c 0,96.58176 -33.6491,198.5554 -117.876,282.57404 -16.3246,16.28417 -35.8905,32.2186 -56.0504,47.23088 -94.006,70.00239 -223.42227,107.97859 -382.55177,150.07843 -166.7733,44.1221 -257.1059,93.13416 -320.6686,148.39256 66.2097,20.4117 159.4083,56.0628 218.423,85.0212 -100.6515,7.2141 -171.692,22.4213 -219.2938,46.2536 -21.9179,10.9734 -39.374,23.2794 -52.2225,39.1736 -17.4356,21.5687 -21.045,44.1963 -21.045,56.656 0,54.5212 44.7171,118.5068 116.9422,180.1392 68.662,58.5919 181.1133,130.9085 326.0718,176.0405 0,0 -43.9993,-10.7217 -99.6167,-21.8698 -105.6356,-21.1739 -215.5578,-40.1077 -297.6894,-62.1148 -37.0251,-9.9208 -58.9484,-15.3215 -99.32556,-28.9011 -40.49607,-13.6196 -69.83519,-26.3603 -81.18119,-31.4439 C 99.31222,1465.9202 0,1363.0773 0,1199.3345 0,1114.2142 23.35683,1034.6678 63.66298,964.85554 99.30394,903.12354 141.17405,857.99621 189.727,823.62487 c 39.7511,-28.14038 80.59985,-47.89051 125.88315,-65.02175 v 0 c 56.77038,-85.1496 89.95998,-203.08421 89.95998,-319.72244 0,-155.27465 -58.47983,-316.74962 -197.00298,-407.372796 176.27518,26.67259 307.79868,106.251226 379.52198,193.493656 52.8638,64.30223 76.89,135.95149 76.89,201.12183 0,91.52846 -51.2826,193.49232 -99.2637,268.54774 -19.4382,30.40662 -38.7829,53.622 -48.2657,66.15954 -12.8489,16.98799 -19.9965,25.97289 -19.9965,25.97289 228.4144,-63.9106 425.7307,-200.3026 425.7307,-386.92377 0,-191.7241 -207.669,-339.695426 -441.7438,-399.87977 361.757,25.576654 570.82817,71.777304 706.31897,169.76605 83.834,60.62984 149.8781,169.64173 149.8781,297.13614 z"
   id="path1-6"
   style="font-variation-settings:normal;display:inline;vector-effect:none;fill:#0840cb;fill-opacity:1;stroke:none;stroke-width:1;stroke-linecap:butt;stroke-linejoin:miter;stroke-miterlimit:4;stroke-dasharray:none;stroke-dashoffset:0;stroke-opacity:1;-inkscape-stroke:none;stop-color:#000000"
   sodipodi:nodetypes="ssssccsssscsssssssccscsssscscss" /><path
   class="st0"
   d="m 1337.6373,466.90224 c 0,96.58181 -33.6491,198.55541 -117.876,282.57411 -16.3246,16.2841 -35.8905,32.2186 -56.0505,47.2308 -94.0061,70.0024 -223.42227,107.9786 -382.55177,150.07829 -166.7734,44.1221 -257.1059,93.13416 -320.6686,148.39256 66.2097,20.4117 159.4083,56.0628 218.4231,85.0212 -100.6516,7.2141 -171.6922,22.4213 -219.2939,46.2536 -21.9179,10.9734 -39.374,23.2794 -52.2225,39.1736 -17.4357,21.5687 -21.045,44.1963 -21.045,56.656 0,54.5212 44.717,118.5068 116.9422,180.1392 68.6619,58.5919 181.1133,130.9085 326.0717,176.0405 0,0 -43.9993,-10.7217 -99.6167,-21.8698 -105.6356,-21.1739 -215.5578,-40.1077 -297.6893,-62.1148 -37.0252,-9.9208 -58.9485,-15.3215 -99.32563,-28.9011 -40.496,-13.6196 -69.8352,-26.3603 -81.1812,-31.4439 C 99.3122,1465.9201 0,1363.0772 0,1199.3344 0,1114.2141 23.3568,1034.6677 63.6629,964.85544 99.3039,903.12355 141.174,857.99625 189.727,823.62495 c 39.7511,-28.1404 80.57083,-47.96726 125.8831,-65.0218 81.25933,-30.58423 175.99013,-46.72841 247.56993,-59.62179 -19.3232,29.8565 -35.2017,47.92919 -45.7303,61.84939 -12.8489,16.988 -19.9965,25.9729 -19.9965,25.9729 228.4145,-63.9106 425.7308,-200.3027 425.7308,-386.92383 0,-191.7241 -207.669,-339.695426 -441.7439,-399.879766 361.7571,25.57665 570.82827,71.7773 706.31907,169.766046 83.834,60.62984 149.8781,169.64173 149.8781,297.13614 z"
   id="path1-6-4-1"
   style="font-variation-settings:normal;display:inline;vector-effect:none;fill:url(#linearGradient12);fill-opacity:1;stroke:none;stroke-width:1.82422;stroke-linecap:butt;stroke-linejoin:miter;stroke-miterlimit:4;stroke-dasharray:none;stroke-dashoffset:0;stroke-opacity:1;-inkscape-stroke:none;stop-color:#000000"
   sodipodi:nodetypes="ssssccsssscsssssssscscscss" />&#10;</svg>
