<?xml version="1.0" encoding="UTF-8"?><svg id="a" xmlns="http://www.w3.org/2000/svg" width="141.5" height="200.5" viewBox="0 0 141.5 200.5"><defs><style>.b{fill:#fafafa;}.c{fill:#93211d;}.d{fill:#c42c27;}.e{opacity:.3;}</style></defs><path class="e" d="m6.8,200.5c-3.74,0-6.8-3.05-6.8-6.78V6.78C0,3.05,3.06,0,6.8,0h127.89c3.74,0,6.8,3.05,6.8,6.78v186.95c0,3.73-3.06,6.78-6.8,6.78H6.8Z"/><path class="b" d="m7.69,199c-3.68,0-6.69-3.01-6.69-6.69V7.69C1,4.01,4.01,1,7.69,1h125.85c3.68,0,6.7,3.01,6.7,6.69v184.62c0,3.68-3.01,6.69-6.7,6.69H7.69Z"/><path class="d" d="m15.3,10.47c3.38,0,5.23,2.01,5.23,5.52v11.41c0,1.22-.22,2.26-.66,3.07.16.41.41.47.97.47h.31v3.07h-.47c-1.54,0-2.51-.56-2.98-1.5-.69.25-1.5.41-2.41.41-3.38,0-5.23-2.01-5.23-5.52v-11.41c0-3.51,1.85-5.52,5.23-5.52Zm0,19.31c1.1,0,1.79-.6,1.79-2.16v-11.85c0-1.57-.69-2.16-1.79-2.16s-1.79.6-1.79,2.16v11.85c0,1.57.69,2.16,1.79,2.16Z"/><path class="d" d="m124.6,189.53c-3.38,0-5.23-2.01-5.23-5.52v-11.41c0-1.22.22-2.26.66-3.07-.16-.41-.41-.47-.97-.47h-.31v-3.07h.47c1.54,0,2.51.56,2.98,1.5.69-.25,1.5-.41,2.41-.41,3.38,0,5.23,2.01,5.23,5.52v11.41c0,3.51-1.85,5.52-5.23,5.52Zm0-19.31c-1.1,0-1.79.6-1.79,2.16v11.85c0,1.57.69,2.16,1.79,2.16s1.79-.6,1.79-2.16v-11.85c0-1.57-.69-2.16-1.79-2.16Z"/><path class="d" d="m70.51,58.9c4.9,4.57,29.35,36.55,34.24,41.1-4.89,4.56-29.35,36.53-34.24,41.1-4.9-4.57-29.37-36.54-34.25-41.1,4.89-4.55,29.36-36.52,34.25-41.1Z"/><path class="c" d="m70.51,58.9c4.9,4.57,29.35,36.55,34.24,41.1-4.89,4.56-29.35,36.53-34.24,41.1"/><path class="d" d="m124.6,147.06c.95.88,5.67,7.06,6.62,7.94-.95.88-5.67,7.06-6.62,7.94-.95-.88-5.67-7.06-6.62-7.94.95-.88,5.67-7.06,6.62-7.94Z"/><path class="d" d="m15.3,37.05c.95.88,5.67,7.06,6.62,7.94-.95.88-5.67,7.06-6.62,7.94-.95-.88-5.67-7.06-6.62-7.94.95-.88,5.67-7.06,6.62-7.94Z"/></svg>