<?xml version="1.0" encoding="UTF-8"?><svg id="a" xmlns="http://www.w3.org/2000/svg" width="141.5" height="200.5" viewBox="0 0 141.5 200.5"><defs><style>.b{fill:#fafafa;}.c{fill:#93211d;}.d{fill:#c42c27;}.e{opacity:.3;}</style></defs><path class="e" d="m6.8,200.5c-3.74,0-6.8-3.05-6.8-6.78V6.78C0,3.05,3.06,0,6.8,0h127.89c3.74,0,6.8,3.05,6.8,6.78v186.95c0,3.73-3.06,6.78-6.8,6.78H6.8Z"/><path class="b" d="m7.69,199c-3.68,0-6.69-3.01-6.69-6.69V7.69C1,4.01,4.01,1,7.69,1h125.85c3.68,0,6.7,3.01,6.7,6.69v184.62c0,3.68-3.01,6.69-6.7,6.69H7.69Z"/><path class="d" d="m91.19,58.9c-9.1,0-16.9,5.35-20.58,13.05-3.67-7.7-11.47-13.05-20.56-13.05-12.62,0-22.85,10.22-22.85,22.83h0c0,27.4,43.41,59.37,43.41,59.37,0,0,43.43-31.96,43.43-59.37,0-12.61-10.23-22.83-22.85-22.83Z"/><path class="c" d="m70.61,141.1s43.43-31.96,43.43-59.37c0-12.61-10.23-22.83-22.85-22.83-9.1,0-16.9,5.35-20.58,13.05"/><path class="d" d="m19.27,37.05c-1.76,0-3.26,1.04-3.97,2.52-.71-1.49-2.22-2.52-3.98-2.52-2.44,0-4.41,1.98-4.41,4.41h0c0,5.3,8.39,11.47,8.39,11.47,0,0,8.39-6.18,8.39-11.47,0-2.43-1.98-4.41-4.41-4.41Z"/><path class="d" d="m17.85,32.66l-.6-3.98h-4.23l-.6,3.98h-3.17l3.51-21.94h5.05l3.51,21.94h-3.48Zm-1.07-6.96l-1.66-11.09-1.66,11.09h3.32Z"/><path class="d" d="m120.62,162.95c1.76,0,3.26-1.04,3.97-2.52.71,1.49,2.22,2.52,3.98,2.52,2.44,0,4.41-1.98,4.41-4.41h0c0-5.3-8.39-11.47-8.39-11.47,0,0-8.39,6.18-8.39,11.47,0,2.43,1.98,4.41,4.41,4.41Z"/><path class="d" d="m122.04,167.34l.6,3.98h4.23l.6-3.98h3.17l-3.51,21.94h-5.05l-3.51-21.94h3.48Zm1.07,6.96l1.66,11.09,1.66-11.09h-3.32Z"/></svg>