<?xml version="1.0" encoding="UTF-8"?><svg id="a" xmlns="http://www.w3.org/2000/svg" width="141.5" height="200.5" viewBox="0 0 141.5 200.5"><defs><style>.b{fill:#fafafa;}.c{fill:#93211d;}.d{fill:#c42c27;}.e{opacity:.3;}</style></defs><path class="e" d="m6.8,200.5C3.06,200.5,0,197.45,0,193.72V6.78C0,3.05,3.06,0,6.8,0h127.89c3.74,0,6.8,3.05,6.8,6.78v186.95c0,3.73-3.06,6.78-6.8,6.78H6.8Z"/><path class="b" d="m7.69,199c-3.68,0-6.69-3.01-6.69-6.69V7.69C1,4.01,4.01,1,7.69,1h125.85c3.68,0,6.7,3.01,6.7,6.69v184.62c0,3.68-3.01,6.69-6.7,6.69H7.69Z"/><path class="d" d="m15.21,13.6c-1.1,0-1.79.6-1.79,2.16v1.41h-3.26v-1.19c0-3.51,1.76-5.52,5.14-5.52s5.14,2.01,5.14,5.52v.56c0,2.35-.75,3.82-2.41,4.51,1.72.75,2.41,2.38,2.41,4.61v1.72c0,3.51-1.76,5.52-5.14,5.52s-5.14-2.01-5.14-5.52v-1.82h3.26v2.04c0,1.57.69,2.16,1.79,2.16s1.79-.53,1.79-2.48v-1.72c0-2.04-.69-2.79-2.26-2.79h-1.16v-3.13h1.35c1.29,0,2.07-.56,2.07-2.32v-1.22c0-1.97-.69-2.51-1.79-2.51Z"/><path class="d" d="m124.69,186.4c1.1,0,1.79-.6,1.79-2.16v-1.41h3.26v1.19c0,3.51-1.76,5.52-5.14,5.52s-5.14-2.01-5.14-5.52v-.56c0-2.35.75-3.82,2.41-4.51-1.72-.75-2.41-2.38-2.41-4.61v-1.72c0-3.51,1.75-5.52,5.14-5.52s5.14,2.01,5.14,5.52v1.82h-3.26v-2.04c0-1.57-.69-2.16-1.79-2.16s-1.79.53-1.79,2.48v1.72c0,2.04.69,2.79,2.26,2.79h1.16v3.13h-1.35c-1.29,0-2.07.56-2.07,2.32v1.22c0,1.97.69,2.51,1.79,2.51Z"/><path class="d" d="m70.59,58.9c4.9,4.57,29.35,36.55,34.24,41.1-4.89,4.56-29.35,36.53-34.24,41.1-4.9-4.57-29.37-36.54-34.25-41.1,4.89-4.55,29.36-36.52,34.25-41.1Z"/><path class="c" d="m70.59,58.9c4.9,4.57,29.35,36.55,34.24,41.1-4.89,4.56-29.35,36.53-34.24,41.1"/><path class="d" d="m124.6,147.06c.95.88,5.67,7.06,6.62,7.94-.95.88-5.67,7.06-6.62,7.94-.95-.88-5.67-7.06-6.62-7.94.95-.88,5.67-7.06,6.62-7.94Z"/><path class="d" d="m15.3,37.05c.95.88,5.67,7.06,6.62,7.94-.95.88-5.67,7.06-6.62,7.94-.95-.88-5.67-7.06-6.62-7.94.95-.88,5.67-7.06,6.62-7.94Z"/></svg>