<?xml version="1.0" encoding="UTF-8"?><svg id="a" xmlns="http://www.w3.org/2000/svg" width="141.5" height="200.5" viewBox="0 0 141.5 200.5"><defs><style>.b{fill:#fafafa;}.c{fill:#3f3f3f;}.d{opacity:.3;}.e{fill:#212121;}</style></defs><path class="d" d="m6.8,200.5C3.06,200.5,0,197.45,0,193.72V6.78C0,3.05,3.06,0,6.8,0h127.89C138.44,0,141.5,3.05,141.5,6.78v186.95c0,3.73-3.06,6.78-6.8,6.78H6.8Z"/><path class="b" d="m7.69,199c-3.68,0-6.69-3.01-6.69-6.69V7.69C1,4.01,4.01,1,7.69,1h125.85c3.68,0,6.7,3.01,6.7,6.69v184.62c0,3.68-3.01,6.69-6.7,6.69H7.69Z"/><path class="e" d="m15.8,10.72h3.76v14.82h1.63v3.13h-1.63v3.98h-3.38v-3.98h-6.64v-3.13l6.27-14.82Zm.38,6.58l-3.48,8.24h3.48v-8.24Z"/><path class="e" d="m124.1,189.28h-3.76v-14.82h-1.63v-3.13h1.63v-3.98h3.39v3.98h6.64v3.13l-6.27,14.82Zm-.38-6.58l3.48-8.24h-3.48v8.24Z"/><path class="c" d="m91.09,90.87c-9.69,0-11.79,4.55-15.12,7.23,4.66-6.44,12.84-7.84,12.84-20.93,0-10.09-8.18-18.27-18.27-18.27s-18.26,8.18-18.26,18.27c0,13.27,8.42,14.51,13.03,21.2-3.6-2.62-5.29-7.5-15.32-7.5s-18.27,8.17-18.27,18.25,8.18,18.28,18.27,18.28c12.19,0,12.37-7.21,18.12-8.81-8.84,17.92-8.5,18.3-18.12,22.51h41.1c-9.62-4.21-9.29-4.58-18.14-22.53,6.07,1.54,5.88,8.84,18.14,8.84,10.09,0,18.27-8.18,18.27-18.28s-8.18-18.25-18.27-18.25Z"/><path class="e" d="m70.54,141.1h20.55c-9.62-4.21-9.29-4.58-18.14-22.53,6.07,1.54,5.88,8.84,18.14,8.84,10.09,0,18.27-8.18,18.27-18.28s-8.18-18.25-18.27-18.25-11.79,4.55-15.12,7.23c4.66-6.44,12.84-7.84,12.84-20.93,0-10.09-8.18-18.27-18.27-18.27"/><path class="e" d="m120.63,156.77c1.87,0,2.28-.88,2.92-1.4-.9,1.24-2.48,1.51-2.48,4.04,0,1.95,1.58,3.53,3.53,3.53s3.53-1.58,3.53-3.53c0-2.56-1.63-2.81-2.52-4.1.7.51,1.02,1.45,2.96,1.45s3.53-1.58,3.53-3.53-1.58-3.53-3.53-3.53c-2.36,0-2.39,1.39-3.5,1.7,1.71-3.46,1.64-3.54,3.5-4.35h-7.94c1.86.81,1.8.89,3.5,4.35-1.17-.3-1.14-1.71-3.5-1.71-1.95,0-3.53,1.58-3.53,3.53s1.58,3.53,3.53,3.53Z"/><path class="e" d="m19.27,43.23c-1.87,0-2.28.88-2.92,1.4.9-1.24,2.48-1.51,2.48-4.04,0-1.95-1.58-3.53-3.53-3.53s-3.53,1.58-3.53,3.53c0,2.56,1.63,2.81,2.52,4.1-.7-.51-1.02-1.45-2.96-1.45s-3.53,1.58-3.53,3.53,1.58,3.53,3.53,3.53c2.36,0,2.39-1.39,3.5-1.7-1.71,3.46-1.64,3.54-3.5,4.35h7.94c-1.86-.81-1.8-.89-3.5-4.35,1.17.3,1.14,1.71,3.5,1.71,1.95,0,3.53-1.58,3.53-3.53s-1.58-3.53-3.53-3.53Z"/></svg>