<?xml version="1.0" encoding="UTF-8"?><svg id="a" xmlns="http://www.w3.org/2000/svg" width="141.5" height="200.5" viewBox="0 0 141.5 200.5"><defs><style>.b{fill:#fafafa;}.c{fill:#93211d;}.d{fill:#c42c27;}.e{opacity:.3;}</style></defs><path class="e" d="m6.8,200.5C3.06,200.5,0,197.45,0,193.72V6.78C0,3.05,3.06,0,6.8,0h127.89c3.74,0,6.8,3.05,6.8,6.78v186.95c0,3.73-3.06,6.78-6.8,6.78H6.8Z"/><path class="b" d="m7.69,1h125.85c3.69,0,6.69,3,6.69,6.69v184.62c0,3.69-3,6.69-6.69,6.69H7.69c-3.69,0-6.69-3-6.69-6.69V7.69C1,4,4,1,7.69,1Z"/><path class="d" d="m91.19,58.9c-9.1,0-16.9,5.35-20.58,13.05-3.67-7.7-11.47-13.05-20.56-13.05-12.62,0-22.85,10.22-22.85,22.83h0c0,27.4,43.41,59.37,43.41,59.37,0,0,43.43-31.96,43.43-59.37,0-12.61-10.23-22.83-22.85-22.83Z"/><path class="c" d="m70.61,141.1s43.43-31.96,43.43-59.37c0-12.61-10.23-22.83-22.85-22.83-9.1,0-16.9,5.35-20.58,13.05"/><path class="d" d="m19.27,37.05c-1.76,0-3.26,1.04-3.97,2.52-.71-1.49-2.22-2.52-3.98-2.52-2.44,0-4.41,1.98-4.41,4.41h0c0,5.3,8.39,11.47,8.39,11.47,0,0,8.39-6.18,8.39-11.47,0-2.43-1.98-4.41-4.41-4.41Z"/><path class="d" d="m15.8,10.72h3.76v14.82h1.63v3.13h-1.63v3.98h-3.38v-3.98h-6.64v-3.13l6.27-14.82Zm.38,6.58l-3.48,8.24h3.48v-8.24Z"/><path class="d" d="m120.62,162.95c1.76,0,3.26-1.04,3.97-2.52.71,1.49,2.22,2.52,3.98,2.52,2.44,0,4.41-1.98,4.41-4.41h0c0-5.3-8.39-11.47-8.39-11.47,0,0-8.39,6.18-8.39,11.47,0,2.43,1.98,4.41,4.41,4.41Z"/><path class="d" d="m124.1,189.28h-3.76v-14.82h-1.63v-3.13h1.63v-3.98h3.39v3.98h6.64v3.13l-6.27,14.82Zm-.38-6.58l3.48-8.24h-3.48v8.24Z"/></svg>