<?xml version="1.0" encoding="UTF-8"?><svg id="a" xmlns="http://www.w3.org/2000/svg" width="141.5" height="200.5" viewBox="0 0 141.5 200.5"><defs><style>.b{fill:#fafafa;}.c{fill:#93211d;}.d{fill:#c42c27;}.e{opacity:.3;}</style></defs><path class="e" d="m6.8,200.5c-3.74,0-6.8-3.05-6.8-6.78V6.78C0,3.05,3.06,0,6.8,0h127.89c3.74,0,6.8,3.05,6.8,6.78v186.95c0,3.73-3.06,6.78-6.8,6.78H6.8Z"/><path class="b" d="m7.69,199c-3.68,0-6.69-3.01-6.69-6.69V7.69C1,4.01,4.01,1,7.69,1h125.85c3.68,0,6.7,3.01,6.7,6.69v184.62c0,3.68-3.01,6.69-6.7,6.69H7.69Z"/><path class="d" d="m13.45,27.61c0,1.57.69,2.13,1.79,2.13s1.79-.56,1.79-2.13v-4.83c0-1.57-.69-2.16-1.79-2.16s-1.79.6-1.79,2.16v.66h-3.26l.63-12.72h9.09v3.13h-5.99l-.28,5.23c.63-1.03,1.63-1.6,3.01-1.6,2.54,0,3.82,1.79,3.82,5.01v4.89c0,3.51-1.75,5.52-5.14,5.52s-5.14-2.01-5.14-5.52v-1.82h3.26v2.04Z"/><path class="d" d="m126.45,172.39c0-1.57-.69-2.13-1.79-2.13s-1.79.56-1.79,2.13v4.83c0,1.57.69,2.16,1.79,2.16s1.79-.6,1.79-2.16v-.66h3.26l-.63,12.72h-9.09v-3.13h5.99l.28-5.23c-.63,1.03-1.63,1.6-3.01,1.6-2.54,0-3.82-1.79-3.82-5.01v-4.89c0-3.51,1.75-5.52,5.14-5.52s5.14,2.01,5.14,5.52v1.82h-3.26v-2.04Z"/><path class="d" d="m70.57,58.9c4.9,4.57,29.35,36.55,34.24,41.1-4.89,4.56-29.35,36.53-34.24,41.1-4.9-4.57-29.37-36.54-34.25-41.1,4.89-4.55,29.36-36.52,34.25-41.1Z"/><path class="c" d="m70.57,58.9c4.9,4.57,29.35,36.55,34.24,41.1-4.89,4.56-29.35,36.53-34.24,41.1"/><path class="d" d="m124.6,147.06c.95.88,5.67,7.06,6.62,7.94-.95.88-5.67,7.06-6.62,7.94-.95-.88-5.67-7.06-6.62-7.94.95-.88,5.67-7.06,6.62-7.94Z"/><path class="d" d="m15.3,37.05c.95.88,5.67,7.06,6.62,7.94-.95.88-5.67,7.06-6.62,7.94-.95-.88-5.67-7.06-6.62-7.94.95-.88,5.67-7.06,6.62-7.94Z"/></svg>