<?xml version="1.0" encoding="UTF-8"?><svg id="a" xmlns="http://www.w3.org/2000/svg" width="141.5" height="200.5" viewBox="0 0 141.5 200.5"><defs><style>.b{fill:#fafafa;}.c{fill:#3f3f3f;}.d{opacity:.3;}.e{fill:#212121;}</style></defs><path class="d" d="m6.8,200.5C3.06,200.5,0,197.45,0,193.72V6.78C0,3.05,3.06,0,6.8,0h127.89C138.44,0,141.5,3.05,141.5,6.78v186.95c0,3.73-3.06,6.78-6.8,6.78H6.8Z"/><path class="b" d="m7.69,199c-3.68,0-6.69-3.01-6.69-6.69V7.69C1,4.01,4.01,1,7.69,1h125.85c3.68,0,6.7,3.01,6.7,6.69v184.62c0,3.68-3.01,6.69-6.7,6.69H7.69Z"/><path class="e" d="m13.45,27.61c0,1.57.69,2.13,1.79,2.13s1.79-.56,1.79-2.13v-4.83c0-1.57-.69-2.16-1.79-2.16s-1.79.6-1.79,2.16v.66h-3.26l.63-12.72h9.09v3.13h-5.99l-.28,5.23c.63-1.03,1.63-1.6,3.01-1.6,2.54,0,3.82,1.79,3.82,5.01v4.89c0,3.51-1.75,5.52-5.14,5.52s-5.14-2.01-5.14-5.52v-1.82h3.26v2.04Z"/><path class="e" d="m126.45,172.39c0-1.57-.69-2.13-1.79-2.13s-1.79.56-1.79,2.13v4.83c0,1.57.69,2.16,1.79,2.16s1.79-.6,1.79-2.16v-.66h3.26l-.63,12.72h-9.09v-3.13h5.99l.28-5.23c-.63,1.03-1.63,1.6-3.01,1.6-2.54,0-3.82-1.79-3.82-5.01v-4.89c0-3.51,1.75-5.52,5.14-5.52s5.14,2.01,5.14,5.52v1.82h-3.26v-2.04Z"/><path class="c" d="m88.92,127.4c11.29,0,20.43-10.21,20.43-22.82h0c0-22.83-28.6-18.27-38.82-45.68-10.21,27.4-38.8,22.84-38.81,45.68,0,12.61,9.15,22.82,20.43,22.82,6.47,0,12.17-3.42,15.89-8.66-8.76,17.78-8.46,18.17-18.05,22.37h41.1c-9.6-4.2-9.3-4.59-18.07-22.39,3.73,5.27,9.42,8.68,15.9,8.68Z"/><path class="e" d="m70.54,141.1h20.55c-9.6-4.2-9.3-4.59-18.07-22.39,3.73,5.27,9.42,8.68,15.9,8.68,11.29,0,20.43-10.21,20.43-22.82h0c0-22.83-28.6-18.27-38.82-45.68"/><path class="e" d="m121.04,149.71c-2.18,0-3.95,1.97-3.95,4.41h0c0,4.41,5.53,3.53,7.5,8.83,1.97-5.3,7.5-4.41,7.5-8.83,0-2.44-1.77-4.41-3.95-4.41-1.25,0-2.35.66-3.07,1.67,1.69-3.44,1.63-3.51,3.49-4.32h-7.94c1.85.81,1.8.89,3.49,4.33-.72-1.02-1.82-1.68-3.07-1.68Z"/><path class="e" d="m18.85,50.29c2.18,0,3.95-1.97,3.95-4.41h0c0-4.41-5.53-3.53-7.5-8.83-1.97,5.3-7.5,4.41-7.5,8.83,0,2.44,1.77,4.41,3.95,4.41,1.25,0,2.35-.66,3.07-1.67-1.69,3.44-1.63,3.51-3.49,4.32h7.94c-1.85-.81-1.8-.89-3.49-4.33.72,1.02,1.82,1.68,3.07,1.68Z"/></svg>