<?xml version="1.0" encoding="UTF-8"?><svg id="a" xmlns="http://www.w3.org/2000/svg" width="141.5" height="200.5" viewBox="0 0 141.5 200.5"><defs><style>.b{fill:#fafafa;}.c{fill:#93211d;}.d{fill:#c42c27;}.e{opacity:.3;}</style></defs><path class="e" d="m6.8,200.5c-3.74,0-6.8-3.05-6.8-6.78V6.78C0,3.05,3.06,0,6.8,0h127.89c3.74,0,6.8,3.05,6.8,6.78v186.95c0,3.73-3.06,6.78-6.8,6.78H6.8Z"/><path class="b" d="m7.69,199c-3.68,0-6.69-3.01-6.69-6.69V7.69C1,4.01,4.01,1,7.69,1h125.85c3.68,0,6.7,3.01,6.7,6.69v184.62c0,3.68-3.01,6.69-6.7,6.69H7.69Z"/><path class="d" d="m15.3,32.91c-3.48,0-5.39-2.01-5.39-5.52v-1.72c0-2.1.63-3.73,2.13-4.58-1.44-.78-2.13-2.26-2.13-4.42v-.69c0-3.51,1.91-5.52,5.39-5.52s5.39,2.01,5.39,5.52v.69c0,2.16-.72,3.64-2.13,4.42,1.5.85,2.13,2.48,2.13,4.58v1.72c0,3.51-1.91,5.52-5.39,5.52Zm0-13.26c1.1,0,1.94-.56,1.94-2.32v-1.22c0-1.97-.85-2.51-1.94-2.51s-1.94.53-1.94,2.51v1.22c0,1.76.81,2.32,1.94,2.32Zm0,10.12c1.1,0,1.91-.53,1.94-2.48v-2.04c0-1.72-.72-2.48-1.94-2.48s-1.94.75-1.94,2.48v2.04c0,1.94.85,2.48,1.94,2.48Z"/><path class="d" d="m124.6,167.09c3.48,0,5.39,2.01,5.39,5.52v1.72c0,2.1-.63,3.73-2.13,4.58,1.44.78,2.13,2.26,2.13,4.42v.69c0,3.51-1.91,5.52-5.39,5.52s-5.39-2.01-5.39-5.52v-.69c0-2.16.72-3.64,2.13-4.42-1.5-.85-2.13-2.48-2.13-4.58v-1.72c0-3.51,1.91-5.52,5.39-5.52Zm0,3.13c-1.1,0-1.91.53-1.94,2.48v2.04c0,1.72.72,2.48,1.94,2.48s1.94-.75,1.94-2.48v-2.04c0-1.94-.85-2.48-1.94-2.48Zm0,10.12c-1.1,0-1.94.56-1.94,2.32v1.22c0,1.97.85,2.51,1.94,2.51s1.94-.53,1.94-2.51v-1.22c0-1.76-.82-2.32-1.94-2.32Z"/><path class="d" d="m70.55,58.9c4.9,4.57,29.35,36.55,34.24,41.1-4.89,4.56-29.35,36.53-34.24,41.1-4.9-4.57-29.37-36.54-34.25-41.1,4.89-4.55,29.36-36.52,34.25-41.1Z"/><path class="c" d="m70.55,58.9c4.9,4.57,29.35,36.55,34.24,41.1-4.89,4.56-29.35,36.53-34.24,41.1"/><path class="d" d="m124.6,147.06c.95.88,5.67,7.06,6.62,7.94-.95.88-5.67,7.06-6.62,7.94-.95-.88-5.67-7.06-6.62-7.94.95-.88,5.67-7.06,6.62-7.94Z"/><path class="d" d="m15.3,37.05c.95.88,5.67,7.06,6.62,7.94-.95.88-5.67,7.06-6.62,7.94-.95-.88-5.67-7.06-6.62-7.94.95-.88,5.67-7.06,6.62-7.94Z"/></svg>