<?xml version="1.0" encoding="UTF-8"?><svg id="a" xmlns="http://www.w3.org/2000/svg" width="141.5" height="200.5" viewBox="0 0 141.5 200.5"><defs><style>.b{fill:#fafafa;}.c{fill:#93211d;}.d{fill:#c42c27;}.e{opacity:.3;}</style></defs><path class="e" d="m6.8,200.5C3.06,200.5,0,197.45,0,193.72V6.78C0,3.05,3.06,0,6.8,0h127.89c3.74,0,6.8,3.05,6.8,6.78v186.95c0,3.73-3.06,6.78-6.8,6.78H6.8Z"/><path class="b" d="m7.69,1h125.85c3.69,0,6.69,3,6.69,6.69v184.62c0,3.69-3,6.69-6.69,6.69H7.69c-3.69,0-6.69-3-6.69-6.69V7.69C1,4,4,1,7.69,1Z"/><path class="d" d="m91.19,58.9c-9.1,0-16.9,5.35-20.58,13.05-3.67-7.7-11.47-13.05-20.56-13.05-12.62,0-22.85,10.22-22.85,22.83h0c0,27.4,43.41,59.37,43.41,59.37,0,0,43.43-31.96,43.43-59.37,0-12.61-10.23-22.83-22.85-22.83Z"/><path class="c" d="m70.61,141.1s43.43-31.96,43.43-59.37c0-12.61-10.23-22.83-22.85-22.83-9.1,0-16.9,5.35-20.58,13.05"/><path class="d" d="m19.27,37.05c-1.76,0-3.26,1.04-3.97,2.52-.71-1.49-2.22-2.52-3.98-2.52-2.44,0-4.41,1.98-4.41,4.41h0c0,5.3,8.39,11.47,8.39,11.47,0,0,8.39-6.18,8.39-11.47,0-2.43-1.98-4.41-4.41-4.41Z"/><path class="d" d="m15.3,32.91c-3.48,0-5.39-2.01-5.39-5.52v-1.72c0-2.1.63-3.73,2.13-4.58-1.44-.78-2.13-2.26-2.13-4.42v-.69c0-3.51,1.91-5.52,5.39-5.52s5.39,2.01,5.39,5.52v.69c0,2.16-.72,3.64-2.13,4.42,1.5.85,2.13,2.48,2.13,4.58v1.72c0,3.51-1.91,5.52-5.39,5.52Zm0-13.26c1.1,0,1.94-.56,1.94-2.32v-1.22c0-1.97-.85-2.51-1.94-2.51s-1.94.53-1.94,2.51v1.22c0,1.76.81,2.32,1.94,2.32Zm0,10.12c1.1,0,1.91-.53,1.94-2.48v-2.04c0-1.72-.72-2.48-1.94-2.48s-1.94.75-1.94,2.48v2.04c0,1.94.85,2.48,1.94,2.48Z"/><path class="d" d="m120.62,162.95c1.76,0,3.26-1.04,3.97-2.52.71,1.49,2.22,2.52,3.98,2.52,2.44,0,4.41-1.98,4.41-4.41h0c0-5.3-8.39-11.47-8.39-11.47,0,0-8.39,6.18-8.39,11.47,0,2.43,1.98,4.41,4.41,4.41Z"/><path class="d" d="m124.6,167.09c3.48,0,5.39,2.01,5.39,5.52v1.72c0,2.1-.63,3.73-2.13,4.58,1.44.78,2.13,2.26,2.13,4.42v.69c0,3.51-1.91,5.52-5.39,5.52s-5.39-2.01-5.39-5.52v-.69c0-2.16.72-3.64,2.13-4.42-1.5-.85-2.13-2.48-2.13-4.58v-1.72c0-3.51,1.91-5.52,5.39-5.52Zm0,3.13c-1.1,0-1.91.53-1.94,2.48v2.04c0,1.72.72,2.48,1.94,2.48s1.94-.75,1.94-2.48v-2.04c0-1.94-.85-2.48-1.94-2.48Zm0,10.12c-1.1,0-1.94.56-1.94,2.32v1.22c0,1.97.85,2.51,1.94,2.51s1.94-.53,1.94-2.51v-1.22c0-1.76-.82-2.32-1.94-2.32Z"/></svg>