<?xml version="1.0" encoding="UTF-8"?><svg id="a" xmlns="http://www.w3.org/2000/svg" width="141.5" height="200.5" viewBox="0 0 141.5 200.5"><defs><style>.b{fill:#fafafa;}.c{fill:#3f3f3f;}.d{opacity:.3;}.e{fill:#212121;}</style></defs><path class="d" d="m6.8,200.5C3.06,200.5,0,197.45,0,193.72V6.78C0,3.05,3.06,0,6.8,0h127.89C138.44,0,141.5,3.05,141.5,6.78v186.95c0,3.73-3.06,6.78-6.8,6.78H6.8Z"/><path class="b" d="m7.69,199c-3.68,0-6.69-3.01-6.69-6.69V7.69C1,4.01,4.01,1,7.69,1h125.85c3.68,0,6.7,3.01,6.7,6.69v184.62c0,3.68-3.01,6.69-6.7,6.69H7.69Z"/><path class="e" d="m15.3,32.91c-3.48,0-5.39-2.01-5.39-5.52v-1.72c0-2.1.63-3.73,2.13-4.58-1.44-.78-2.13-2.26-2.13-4.42v-.69c0-3.51,1.91-5.52,5.39-5.52s5.39,2.01,5.39,5.52v.69c0,2.16-.72,3.64-2.13,4.42,1.5.85,2.13,2.48,2.13,4.58v1.72c0,3.51-1.91,5.52-5.39,5.52Zm0-13.26c1.1,0,1.94-.56,1.94-2.32v-1.22c0-1.97-.85-2.51-1.94-2.51s-1.94.53-1.94,2.51v1.22c0,1.76.81,2.32,1.94,2.32Zm0,10.12c1.1,0,1.91-.53,1.94-2.48v-2.04c0-1.72-.72-2.48-1.94-2.48s-1.94.75-1.94,2.48v2.04c0,1.94.85,2.48,1.94,2.48Z"/><path class="e" d="m124.6,167.09c3.48,0,5.39,2.01,5.39,5.52v1.72c0,2.1-.63,3.73-2.13,4.58,1.44.78,2.13,2.26,2.13,4.42v.69c0,3.51-1.91,5.52-5.39,5.52s-5.39-2.01-5.39-5.52v-.69c0-2.16.72-3.64,2.13-4.42-1.5-.85-2.13-2.48-2.13-4.58v-1.72c0-3.51,1.91-5.52,5.39-5.52Zm0,3.13c-1.1,0-1.91.53-1.94,2.48v2.04c0,1.72.72,2.48,1.94,2.48s1.94-.75,1.94-2.48v-2.04c0-1.94-.85-2.48-1.94-2.48Zm0,10.12c-1.1,0-1.94.56-1.94,2.32v1.22c0,1.97.85,2.51,1.94,2.51s1.94-.53,1.94-2.51v-1.22c0-1.75-.82-2.32-1.94-2.32Z"/><path class="c" d="m88.85,127.4c11.29,0,20.43-10.21,20.43-22.82h0c0-22.83-28.6-18.27-38.82-45.68-10.21,27.4-38.8,22.84-38.81,45.68,0,12.61,9.15,22.82,20.43,22.82,6.47,0,12.17-3.42,15.89-8.66-8.76,17.78-8.46,18.17-18.05,22.37h41.1c-9.6-4.2-9.3-4.59-18.07-22.39,3.73,5.27,9.42,8.68,15.9,8.68Z"/><path class="e" d="m70.47,141.1h20.55c-9.6-4.2-9.3-4.59-18.07-22.39,3.73,5.27,9.42,8.68,15.9,8.68,11.29,0,20.43-10.21,20.43-22.82h0c0-22.83-28.6-18.27-38.82-45.68"/><path class="e" d="m121.05,149.71c-2.18,0-3.95,1.97-3.95,4.41h0c0,4.41,5.53,3.53,7.5,8.83,1.97-5.3,7.5-4.41,7.5-8.83,0-2.44-1.77-4.41-3.95-4.41-1.25,0-2.35.66-3.07,1.67,1.69-3.44,1.63-3.51,3.49-4.32h-7.94c1.85.81,1.8.89,3.49,4.33-.72-1.02-1.82-1.68-3.07-1.68Z"/><path class="e" d="m18.85,50.29c2.18,0,3.95-1.97,3.95-4.41h0c0-4.41-5.53-3.53-7.5-8.83-1.97,5.3-7.5,4.41-7.5,8.83,0,2.44,1.77,4.41,3.95,4.41,1.25,0,2.35-.66,3.07-1.67-1.69,3.44-1.63,3.51-3.49,4.32h7.94c-1.85-.81-1.8-.89-3.49-4.33.72,1.02,1.82,1.68,3.07,1.68Z"/></svg>