<?xml version="1.0" encoding="UTF-8"?><svg id="a" xmlns="http://www.w3.org/2000/svg" width="141.5" height="200.5" viewBox="0 0 141.5 200.5"><defs><style>.b{fill:#fafafa;}.c{fill:#93211d;}.d{fill:#c42c27;}.e{opacity:.3;}</style></defs><path class="e" d="m6.8,200.5c-3.74,0-6.8-3.05-6.8-6.78V6.78C0,3.05,3.06,0,6.8,0h127.89c3.74,0,6.8,3.05,6.8,6.78v186.95c0,3.73-3.06,6.78-6.8,6.78H6.8Z"/><path class="b" d="m7.69,199c-3.68,0-6.69-3.01-6.69-6.69V7.69C1,4.01,4.01,1,7.69,1h125.85c3.68,0,6.7,3.01,6.7,6.69v184.62c0,3.68-3.01,6.69-6.7,6.69H7.69Z"/><path class="d" d="m15.2,32.91c-3.38,0-5.14-2.01-5.14-5.52v-.56h3.26v.78c0,1.57.69,2.16,1.79,2.16,1.22,0,1.91-.6,1.91-2.7v-4.01c-.59,1.25-1.66,1.94-3.2,1.94-2.54,0-3.82-1.79-3.82-5.01v-4.01c0-3.51,1.85-5.52,5.23-5.52s5.23,2.01,5.23,5.52v11.22c0,3.7-1.69,5.71-5.27,5.71Zm1.82-13.2v-3.95c0-1.57-.69-2.13-1.79-2.13s-1.79.56-1.79,2.13v3.95c0,1.57.69,2.16,1.79,2.16s1.79-.6,1.79-2.16Z"/><path class="d" d="m124.69,167.09c3.39,0,5.14,2.01,5.14,5.52v.56h-3.26v-.78c0-1.57-.69-2.16-1.79-2.16-1.22,0-1.91.6-1.91,2.7v4.01c.6-1.25,1.66-1.94,3.2-1.94,2.54,0,3.82,1.79,3.82,5.01v4.01c0,3.51-1.85,5.52-5.23,5.52s-5.23-2.01-5.23-5.52v-11.22c0-3.7,1.69-5.7,5.26-5.7Zm-1.82,13.19v3.95c0,1.57.69,2.13,1.79,2.13s1.79-.56,1.79-2.13v-3.95c0-1.57-.69-2.16-1.79-2.16s-1.79.6-1.79,2.16Z"/><path class="d" d="m70.54,58.9c4.9,4.57,29.35,36.55,34.24,41.1-4.89,4.56-29.35,36.53-34.24,41.1-4.9-4.57-29.37-36.54-34.25-41.1,4.89-4.55,29.36-36.52,34.25-41.1Z"/><path class="c" d="m70.54,58.9c4.9,4.57,29.35,36.55,34.24,41.1-4.89,4.56-29.35,36.53-34.24,41.1"/><path class="d" d="m124.6,147.06c.95.88,5.67,7.06,6.62,7.94-.95.88-5.67,7.06-6.62,7.94-.95-.88-5.67-7.06-6.62-7.94.95-.88,5.67-7.06,6.62-7.94Z"/><path class="d" d="m15.3,37.05c.95.88,5.67,7.06,6.62,7.94-.95.88-5.67,7.06-6.62,7.94-.95-.88-5.67-7.06-6.62-7.94.95-.88,5.67-7.06,6.62-7.94Z"/></svg>